# xmcd CD database file
#
# Track frame offsets:
#	150
#	43293
#	71075
#	97072
#	127401
#	160220
#	189093
#	228966
#	272461
#
# Disc length: 3787 seconds
#
# Revision: 0
# Processed by: cddbd v1.5.2PL0 Copyright (c) Steve Scherf et al.
# Submitted via: CDex 1.70beta1
#
DISCID=7f0ec909
DTITLE=Dean Evenson and Scott Huckabay - Mountain Meadow Meditation
DYEAR=2003
DGENRE=New Age
TTITLE0=Breath of Sky
TTITLE1=Harmonic Dreaming
TTITLE2=Sweet Surrender
TTITLE3=Colors of the Mind
TTITLE4=Across the Valley
TTITLE5=The Hills Are Alive
TTITLE6=Wild Flowers Waving
TTITLE7=Blanket of Buttercups
TTITLE8=Inner Flight
EXTD=YEAR: 2003
EXTT0=
EXTT1=
EXTT2=
EXTT3=
EXTT4=
EXTT5=
EXTT6=
EXTT7=
EXTT8=
PLAYORDER=
